# xmcd
#
# Track frame offsets:
#	150
#	19743
#	48715
#	77899
#	111334
#	144342
#	171872
#	204535
#
# Disc length: 3254 seconds
#
# Revision: 0
# Processed by: cddbd v1.5.2PL0 Copyright (c) Steve Scherf et al.
# Submitted via: audiograbber 1.83.01
#
DISCID=6d0cb408
DTITLE=Grateful Dead - 93-09-25 Boston Garden, Boston MA
DYEAR=1900
DGENRE=
TTITLE0=Tuning
TTITLE1=Cold Rain and Snow
TTITLE2=Wang Dang Doodle
TTITLE3=Loser
TTITLE4=It's All Over Now
TTITLE5=Just Like Tom Thumb's Blues
TTITLE6=Cassidy
TTITLE7=Deal
EXTD=
EXTT0=
EXTT1=
EXTT2=
EXTT3=
EXTT4=
EXTT5=
EXTT6=
EXTT7=
PLAYORDER=
